<?xml version="1.0" encoding="UTF-8" standalone="no"?>
<!DOCTYPE svg PUBLIC "-//W3C//DTD SVG 1.1//EN"
 "http://www.w3.org/Graphics/SVG/1.1/DTD/svg11.dtd">
<!-- Generated by graphviz version 2.40.1 (20161225.0304)
 -->
<!-- Title: Specimen_001 Pages: 1 -->
<svg width="502pt" height="502pt"
 viewBox="0.00 0.00 501.70 501.70" xmlns="http://www.w3.org/2000/svg" xmlns:xlink="http://www.w3.org/1999/xlink">
<g id="graph0" class="graph" transform="scale(1 1) rotate(0) translate(4 497.7034)">
<title>Specimen_001</title>
<polygon fill="#ffffff" stroke="transparent" points="-4,4 -4,-497.7034 497.6967,-497.7034 497.6967,4 -4,4"/>
<!-- I0 -->
<g id="node1" class="node">
<title>I0</title>
<ellipse fill="none" stroke="#da70d6" stroke-width="2" cx="150.8483" cy="-83.7034" rx="18.724" ry="18.724"/>
<ellipse fill="none" stroke="#da70d6" stroke-width="2" cx="150.8483" cy="-83.7034" rx="22.6977" ry="22.6977"/>
<text text-anchor="middle" x="150.8483" y="-80.0034" font-family="Times,serif" font-size="14.00" fill="#000000">I0</text>
</g>
<!-- N0 -->
<g id="node9" class="node">
<title>N0</title>
<ellipse fill="none" stroke="#ff6347" stroke-width="2" cx="104.8483" cy="-395.7034" rx="22.9609" ry="22.9609"/>
<ellipse fill="none" stroke="#ff6347" stroke-width="2" cx="104.8483" cy="-395.7034" rx="26.9983" ry="26.9983"/>
<text text-anchor="middle" x="104.8483" y="-392.0034" font-family="Times,serif" font-size="14.00" fill="#000000">N0</text>
</g>
<!-- I0&#45;&gt;N0 -->
<g id="edge49" class="edge">
<title>I0&#45;&gt;N0</title>
<path fill="none" stroke="#000000" d="M147.5031,-106.393C139.6302,-159.7918 119.8731,-293.7965 110.2646,-358.9672"/>
<polygon fill="#000000" stroke="#000000" points="106.7541,-358.782 108.758,-369.1856 113.6793,-359.8031 106.7541,-358.782"/>
</g>
<!-- N1 -->
<g id="node10" class="node">
<title>N1</title>
<ellipse fill="none" stroke="#ff6347" stroke-width="2" cx="175.8483" cy="-395.7034" rx="22.9609" ry="22.9609"/>
<ellipse fill="none" stroke="#ff6347" stroke-width="2" cx="175.8483" cy="-395.7034" rx="26.9983" ry="26.9983"/>
<text text-anchor="middle" x="175.8483" y="-392.0034" font-family="Times,serif" font-size="14.00" fill="#000000">N1</text>
</g>
<!-- I0&#45;&gt;N1 -->
<g id="edge41" class="edge">
<title>I0&#45;&gt;N1</title>
<path fill="none" stroke="#000000" d="M152.6866,-106.6455C156.97,-160.1014 167.6463,-293.3419 172.872,-358.5593"/>
<polygon fill="#000000" stroke="#000000" points="169.4044,-359.1048 173.6921,-368.7933 176.3821,-358.5457 169.4044,-359.1048"/>
</g>
<!-- N2 -->
<g id="node11" class="node">
<title>N2</title>
<ellipse fill="none" stroke="#ff6347" stroke-width="2" cx="246.8483" cy="-395.7034" rx="22.9609" ry="22.9609"/>
<ellipse fill="none" stroke="#ff6347" stroke-width="2" cx="246.8483" cy="-395.7034" rx="26.9983" ry="26.9983"/>
<text text-anchor="middle" x="246.8483" y="-392.0034" font-family="Times,serif" font-size="14.00" fill="#000000">N2</text>
</g>
<!-- I0&#45;&gt;N2 -->
<g id="edge33" class="edge">
<title>I0&#45;&gt;N2</title>
<path fill="none" stroke="#000000" d="M157.5989,-105.6426C173.9656,-158.8345 215.8833,-295.067 235.8954,-360.1063"/>
<polygon fill="#000000" stroke="#000000" points="232.6257,-361.3814 238.9118,-369.9099 239.3162,-359.3227 232.6257,-361.3814"/>
</g>
<!-- N3 -->
<g id="node12" class="node">
<title>N3</title>
<ellipse fill="none" stroke="#ff6347" stroke-width="2" cx="317.8483" cy="-395.7034" rx="22.9609" ry="22.9609"/>
<ellipse fill="none" stroke="#ff6347" stroke-width="2" cx="317.8483" cy="-395.7034" rx="26.9983" ry="26.9983"/>
<text text-anchor="middle" x="317.8483" y="-392.0034" font-family="Times,serif" font-size="14.00" fill="#000000">N3</text>
</g>
<!-- I0&#45;&gt;N3 -->
<g id="edge25" class="edge">
<title>I0&#45;&gt;N3</title>
<path fill="none" stroke="#000000" d="M161.8057,-104.1746C190.0933,-157.0234 265.7641,-298.3963 300.2661,-362.8551"/>
<polygon fill="#000000" stroke="#000000" points="297.2424,-364.6229 305.0473,-371.7877 303.4139,-361.3195 297.2424,-364.6229"/>
</g>
<!-- N4 -->
<g id="node13" class="node">
<title>N4</title>
<ellipse fill="none" stroke="#ff6347" stroke-width="2" cx="388.8483" cy="-395.7034" rx="22.9609" ry="22.9609"/>
<ellipse fill="none" stroke="#ff6347" stroke-width="2" cx="388.8483" cy="-395.7034" rx="26.9983" ry="26.9983"/>
<text text-anchor="middle" x="388.8483" y="-392.0034" font-family="Times,serif" font-size="14.00" fill="#000000">N4</text>
</g>
<!-- I0&#45;&gt;N4 -->
<g id="edge17" class="edge">
<title>I0&#45;&gt;N4</title>
<path fill="none" stroke="#000000" d="M165.0236,-102.2861C204.8648,-154.515 318.08,-302.9315 366.47,-366.3671"/>
<polygon fill="#000000" stroke="#000000" points="363.7354,-368.5531 372.5833,-374.3812 369.301,-364.3076 363.7354,-368.5531"/>
</g>
<!-- N5 -->
<g id="node14" class="node">
<title>N5</title>
<ellipse fill="none" stroke="#ff6347" stroke-width="2" cx="459.8483" cy="-395.7034" rx="22.9609" ry="22.9609"/>
<ellipse fill="none" stroke="#ff6347" stroke-width="2" cx="459.8483" cy="-395.7034" rx="26.9983" ry="26.9983"/>
<text text-anchor="middle" x="459.8483" y="-392.0034" font-family="Times,serif" font-size="14.00" fill="#000000">N5</text>
</g>
<!-- I0&#45;&gt;N5 -->
<g id="edge9" class="edge">
<title>I0&#45;&gt;N5</title>
<path fill="none" stroke="#000000" d="M167.0264,-100.0386C217.3825,-150.8836 371.6594,-306.6583 433.6535,-369.2543"/>
<polygon fill="#000000" stroke="#000000" points="431.2194,-371.7704 440.7431,-376.4127 436.1931,-366.8446 431.2194,-371.7704"/>
</g>
<!-- N6 -->
<g id="node15" class="node">
<title>N6</title>
<ellipse fill="none" stroke="#ff6347" stroke-width="2" cx="33.8483" cy="-395.7034" rx="22.9609" ry="22.9609"/>
<ellipse fill="none" stroke="#ff6347" stroke-width="2" cx="33.8483" cy="-395.7034" rx="26.9983" ry="26.9983"/>
<text text-anchor="middle" x="33.8483" y="-392.0034" font-family="Times,serif" font-size="14.00" fill="#000000">N6</text>
</g>
<!-- I0&#45;&gt;N6 -->
<g id="edge1" class="edge">
<title>I0&#45;&gt;N6</title>
<path fill="none" stroke="#000000" d="M142.8064,-105.1484C122.918,-158.1843 71.2769,-295.8939 46.9227,-360.8384"/>
<polygon fill="#000000" stroke="#000000" points="43.6299,-359.6513 43.3958,-370.2435 50.1842,-362.1092 43.6299,-359.6513"/>
</g>
<!-- I1 -->
<g id="node2" class="node">
<title>I1</title>
<ellipse fill="none" stroke="#da70d6" stroke-width="2" cx="214.8483" cy="-83.7034" rx="18.724" ry="18.724"/>
<ellipse fill="none" stroke="#da70d6" stroke-width="2" cx="214.8483" cy="-83.7034" rx="22.6977" ry="22.6977"/>
<text text-anchor="middle" x="214.8483" y="-80.0034" font-family="Times,serif" font-size="14.00" fill="#000000">I1</text>
</g>
<!-- I1&#45;&gt;N0 -->
<g id="edge50" class="edge">
<title>I1&#45;&gt;N0</title>
<path fill="none" stroke="#000000" d="M207.1133,-105.6426C188.3134,-158.9662 140.0912,-295.7419 117.2288,-360.588"/>
<polygon fill="#000000" stroke="#000000" points="113.8099,-359.7592 113.7856,-370.354 120.4116,-362.0868 113.8099,-359.7592"/>
</g>
<!-- I1&#45;&gt;N1 -->
<g id="edge42" class="edge">
<title>I1&#45;&gt;N1</title>
<path fill="none" stroke="#000000" d="M212.0121,-106.393C205.3539,-159.659 188.67,-293.1303 180.5013,-358.4795"/>
<polygon fill="#000000" stroke="#000000" points="176.9869,-358.3776 179.2194,-368.7346 183.9328,-359.246 176.9869,-358.3776"/>
</g>
<!-- I1&#45;&gt;N2 -->
<g id="edge34" class="edge">
<title>I1&#45;&gt;N2</title>
<path fill="none" stroke="#000000" d="M217.2014,-106.6455C222.684,-160.1014 236.3497,-293.3419 243.0387,-358.5593"/>
<polygon fill="#000000" stroke="#000000" points="239.5862,-359.2026 244.0883,-368.7933 246.5497,-358.4884 239.5862,-359.2026"/>
</g>
<!-- I1&#45;&gt;N3 -->
<g id="edge26" class="edge">
<title>I1&#45;&gt;N3</title>
<path fill="none" stroke="#000000" d="M222.0911,-105.6426C239.6512,-158.8345 284.6254,-295.067 306.0967,-360.1063"/>
<polygon fill="#000000" stroke="#000000" points="302.8746,-361.5112 309.3331,-369.9099 309.5218,-359.3167 302.8746,-361.5112"/>
</g>
<!-- I1&#45;&gt;N4 -->
<g id="edge18" class="edge">
<title>I1&#45;&gt;N4</title>
<path fill="none" stroke="#000000" d="M225.9975,-103.695C255.3089,-156.2533 334.7443,-298.6892 370.7148,-363.1881"/>
<polygon fill="#000000" stroke="#000000" points="367.7679,-365.0899 375.6954,-372.1188 373.8814,-361.6804 367.7679,-365.0899"/>
</g>
<!-- I1&#45;&gt;N5 -->
<g id="edge10" class="edge">
<title>I1&#45;&gt;N5</title>
<path fill="none" stroke="#000000" d="M229.0795,-101.8264C269.7388,-153.6048 386.6985,-302.5493 436.7137,-366.2422"/>
<polygon fill="#000000" stroke="#000000" points="434.1039,-368.5858 443.0326,-374.2891 439.6093,-364.2626 434.1039,-368.5858"/>
</g>
<!-- I1&#45;&gt;N6 -->
<g id="edge2" class="edge">
<title>I1&#45;&gt;N6</title>
<path fill="none" stroke="#000000" d="M203.2506,-103.695C172.6857,-156.3815 89.7256,-299.3846 52.4384,-363.6586"/>
<polygon fill="#000000" stroke="#000000" points="49.2707,-362.1441 47.2801,-372.5503 55.3256,-365.6568 49.2707,-362.1441"/>
</g>
<!-- I2 -->
<g id="node3" class="node">
<title>I2</title>
<ellipse fill="none" stroke="#da70d6" stroke-width="2" cx="278.8483" cy="-83.7034" rx="18.724" ry="18.724"/>
<ellipse fill="none" stroke="#da70d6" stroke-width="2" cx="278.8483" cy="-83.7034" rx="22.6977" ry="22.6977"/>
<text text-anchor="middle" x="278.8483" y="-80.0034" font-family="Times,serif" font-size="14.00" fill="#000000">I2</text>
</g>
<!-- I2&#45;&gt;N0 -->
<g id="edge51" class="edge">
<title>I2&#45;&gt;N0</title>
<path fill="none" stroke="#000000" d="M267.6992,-103.695C238.3878,-156.2533 158.9524,-298.6892 122.9819,-363.1881"/>
<polygon fill="#000000" stroke="#000000" points="119.8152,-361.6804 118.0013,-372.1188 125.9288,-365.0899 119.8152,-361.6804"/>
</g>
<!-- I2&#45;&gt;N1 -->
<g id="edge43" class="edge">
<title>I2&#45;&gt;N1</title>
<path fill="none" stroke="#000000" d="M271.6056,-105.6426C254.0454,-158.8345 209.0712,-295.067 187.5999,-360.1063"/>
<polygon fill="#000000" stroke="#000000" points="184.1749,-359.3167 184.3635,-369.9099 190.822,-361.5112 184.1749,-359.3167"/>
</g>
<!-- I2&#45;&gt;N2 -->
<g id="edge35" class="edge">
<title>I2&#45;&gt;N2</title>
<path fill="none" stroke="#000000" d="M276.4953,-106.6455C271.0126,-160.1014 257.3469,-293.3419 250.658,-358.5593"/>
<polygon fill="#000000" stroke="#000000" points="247.147,-358.4884 249.6083,-368.7933 254.1104,-359.2026 247.147,-358.4884"/>
</g>
<!-- I2&#45;&gt;N3 -->
<g id="edge27" class="edge">
<title>I2&#45;&gt;N3</title>
<path fill="none" stroke="#000000" d="M281.6845,-106.393C288.3428,-159.659 305.0267,-293.1303 313.1953,-358.4795"/>
<polygon fill="#000000" stroke="#000000" points="309.7638,-359.246 314.4772,-368.7346 316.7098,-358.3776 309.7638,-359.246"/>
</g>
<!-- I2&#45;&gt;N4 -->
<g id="edge19" class="edge">
<title>I2&#45;&gt;N4</title>
<path fill="none" stroke="#000000" d="M286.5833,-105.6426C305.3833,-158.9662 353.6055,-295.7419 376.4679,-360.588"/>
<polygon fill="#000000" stroke="#000000" points="373.2851,-362.0868 379.911,-370.354 379.8868,-359.7592 373.2851,-362.0868"/>
</g>
<!-- I2&#45;&gt;N5 -->
<g id="edge11" class="edge">
<title>I2&#45;&gt;N5</title>
<path fill="none" stroke="#000000" d="M290.446,-103.695C321.011,-156.3815 403.971,-299.3846 441.2582,-363.6586"/>
<polygon fill="#000000" stroke="#000000" points="438.371,-365.6568 446.4166,-372.5503 444.4259,-362.1441 438.371,-365.6568"/>
</g>
<!-- I2&#45;&gt;N6 -->
<g id="edge3" class="edge">
<title>I2&#45;&gt;N6</title>
<path fill="none" stroke="#000000" d="M264.6171,-101.8264C223.9578,-153.6048 106.9982,-302.5493 56.983,-366.2422"/>
<polygon fill="#000000" stroke="#000000" points="54.0873,-364.2626 50.664,-374.2891 59.5928,-368.5858 54.0873,-364.2626"/>
</g>
<!-- I3 -->
<g id="node4" class="node">
<title>I3</title>
<ellipse fill="none" stroke="#da70d6" stroke-width="2" cx="342.8483" cy="-83.7034" rx="18.724" ry="18.724"/>
<ellipse fill="none" stroke="#da70d6" stroke-width="2" cx="342.8483" cy="-83.7034" rx="22.6977" ry="22.6977"/>
<text text-anchor="middle" x="342.8483" y="-80.0034" font-family="Times,serif" font-size="14.00" fill="#000000">I3</text>
</g>
<!-- I3&#45;&gt;N0 -->
<g id="edge52" class="edge">
<title>I3&#45;&gt;N0</title>
<path fill="none" stroke="#000000" d="M328.6731,-102.2861C288.8318,-154.515 175.6167,-302.9315 127.2267,-366.3671"/>
<polygon fill="#000000" stroke="#000000" points="124.3956,-364.3076 121.1134,-374.3812 129.9612,-368.5531 124.3956,-364.3076"/>
</g>
<!-- I3&#45;&gt;N1 -->
<g id="edge44" class="edge">
<title>I3&#45;&gt;N1</title>
<path fill="none" stroke="#000000" d="M331.891,-104.1746C303.6033,-157.0234 227.9326,-298.3963 193.4306,-362.8551"/>
<polygon fill="#000000" stroke="#000000" points="190.2827,-361.3195 188.6494,-371.7877 196.4543,-364.6229 190.2827,-361.3195"/>
</g>
<!-- I3&#45;&gt;N2 -->
<g id="edge36" class="edge">
<title>I3&#45;&gt;N2</title>
<path fill="none" stroke="#000000" d="M336.0978,-105.6426C319.7311,-158.8345 277.8134,-295.067 257.8013,-360.1063"/>
<polygon fill="#000000" stroke="#000000" points="254.3805,-359.3227 254.7848,-369.9099 261.071,-361.3814 254.3805,-359.3227"/>
</g>
<!-- I3&#45;&gt;N3 -->
<g id="edge28" class="edge">
<title>I3&#45;&gt;N3</title>
<path fill="none" stroke="#000000" d="M341.01,-106.6455C336.7267,-160.1014 326.0504,-293.3419 320.8246,-358.5593"/>
<polygon fill="#000000" stroke="#000000" points="317.3146,-358.5457 320.0046,-368.7933 324.2922,-359.1048 317.3146,-358.5457"/>
</g>
<!-- I3&#45;&gt;N4 -->
<g id="edge20" class="edge">
<title>I3&#45;&gt;N4</title>
<path fill="none" stroke="#000000" d="M346.1936,-106.393C354.0665,-159.7918 373.8236,-293.7965 383.4321,-358.9672"/>
<polygon fill="#000000" stroke="#000000" points="380.0174,-359.8031 384.9386,-369.1856 386.9425,-358.782 380.0174,-359.8031"/>
</g>
<!-- I3&#45;&gt;N5 -->
<g id="edge12" class="edge">
<title>I3&#45;&gt;N5</title>
<path fill="none" stroke="#000000" d="M350.8902,-105.1484C370.7787,-158.1843 422.4198,-295.8939 446.7739,-360.8384"/>
<polygon fill="#000000" stroke="#000000" points="443.5124,-362.1092 450.3009,-370.2435 450.0667,-359.6513 443.5124,-362.1092"/>
</g>
<!-- I3&#45;&gt;N6 -->
<g id="edge4" class="edge">
<title>I3&#45;&gt;N6</title>
<path fill="none" stroke="#000000" d="M326.6702,-100.0386C276.3141,-150.8836 122.0372,-306.6583 60.0431,-369.2543"/>
<polygon fill="#000000" stroke="#000000" points="57.5036,-366.8446 52.9536,-376.4127 62.4772,-371.7704 57.5036,-366.8446"/>
</g>
<!-- I4 -->
<g id="node5" class="node">
<title>I4</title>
<ellipse fill="none" stroke="#da70d6" stroke-width="2" cx="406.8483" cy="-83.7034" rx="18.724" ry="18.724"/>
<ellipse fill="none" stroke="#da70d6" stroke-width="2" cx="406.8483" cy="-83.7034" rx="22.6977" ry="22.6977"/>
<text text-anchor="middle" x="406.8483" y="-80.0034" font-family="Times,serif" font-size="14.00" fill="#000000">I4</text>
</g>
<!-- I4&#45;&gt;N0 -->
<g id="edge53" class="edge">
<title>I4&#45;&gt;N0</title>
<path fill="none" stroke="#000000" d="M390.6115,-100.4779C341.1476,-151.5797 192.006,-305.6597 131.1429,-368.5382"/>
<polygon fill="#000000" stroke="#000000" points="128.2729,-366.4708 123.8327,-376.0904 133.3026,-371.3394 128.2729,-366.4708"/>
</g>
<!-- I4&#45;&gt;N1 -->
<g id="edge45" class="edge">
<title>I4&#45;&gt;N1</title>
<path fill="none" stroke="#000000" d="M393.09,-102.2861C354.5135,-154.3894 245.0631,-302.2185 197.9083,-365.9082"/>
<polygon fill="#000000" stroke="#000000" points="195.0831,-363.842 191.9456,-373.9617 200.709,-368.0074 195.0831,-363.842"/>
</g>
<!-- I4&#45;&gt;N2 -->
<g id="edge37" class="edge">
<title>I4&#45;&gt;N2</title>
<path fill="none" stroke="#000000" d="M396.3503,-104.1746C369.2483,-157.0234 296.7494,-298.3963 263.6936,-362.8551"/>
<polygon fill="#000000" stroke="#000000" points="260.5617,-361.2924 259.1128,-371.7877 266.7904,-364.4866 260.5617,-361.2924"/>
</g>
<!-- I4&#45;&gt;N3 -->
<g id="edge29" class="edge">
<title>I4&#45;&gt;N3</title>
<path fill="none" stroke="#000000" d="M400.4477,-106.1417C385.2009,-159.5911 346.6287,-294.8104 328.0968,-359.7763"/>
<polygon fill="#000000" stroke="#000000" points="324.6787,-358.9999 325.3012,-369.5765 331.4102,-360.9202 324.6787,-358.9999"/>
</g>
<!-- I4&#45;&gt;N4 -->
<g id="edge21" class="edge">
<title>I4&#45;&gt;N4</title>
<path fill="none" stroke="#000000" d="M405.5247,-106.6455C402.4408,-160.1014 394.7538,-293.3419 390.9913,-358.5593"/>
<polygon fill="#000000" stroke="#000000" points="387.4827,-358.6083 390.4008,-368.7933 394.4711,-359.0115 387.4827,-358.6083"/>
</g>
<!-- I4&#45;&gt;N5 -->
<g id="edge13" class="edge">
<title>I4&#45;&gt;N5</title>
<path fill="none" stroke="#000000" d="M410.7026,-106.393C419.7736,-159.7918 442.5372,-293.7965 453.6079,-358.9672"/>
<polygon fill="#000000" stroke="#000000" points="450.2183,-359.913 455.3437,-369.1856 457.1195,-358.7406 450.2183,-359.913"/>
</g>
<!-- I4&#45;&gt;N6 -->
<g id="edge5" class="edge">
<title>I4&#45;&gt;N6</title>
<path fill="none" stroke="#000000" d="M388.8578,-98.7518C329.0251,-148.7996 136.3543,-309.9612 62.777,-371.5057"/>
<polygon fill="#000000" stroke="#000000" points="60.24,-369.0648 54.8152,-378.1655 64.7312,-374.4341 60.24,-369.0648"/>
</g>
<!-- I5 -->
<g id="node6" class="node">
<title>I5</title>
<ellipse fill="none" stroke="#da70d6" stroke-width="2" cx="470.8483" cy="-83.7034" rx="18.724" ry="18.724"/>
<ellipse fill="none" stroke="#da70d6" stroke-width="2" cx="470.8483" cy="-83.7034" rx="22.6977" ry="22.6977"/>
<text text-anchor="middle" x="470.8483" y="-80.0034" font-family="Times,serif" font-size="14.00" fill="#000000">I5</text>
</g>
<!-- I5&#45;&gt;N0 -->
<g id="edge54" class="edge">
<title>I5&#45;&gt;N0</title>
<path fill="none" stroke="#000000" d="M453.1954,-98.7518C394.4855,-148.7996 205.4306,-309.9612 133.2341,-371.5057"/>
<polygon fill="#000000" stroke="#000000" points="130.7613,-369.0145 125.4217,-378.1655 135.3025,-374.3416 130.7613,-369.0145"/>
</g>
<!-- I5&#45;&gt;N1 -->
<g id="edge46" class="edge">
<title>I5&#45;&gt;N1</title>
<path fill="none" stroke="#000000" d="M454.9878,-100.4779C406.6704,-151.5797 260.9858,-305.6597 201.5334,-368.5382"/>
<polygon fill="#000000" stroke="#000000" points="198.7198,-366.4195 194.3927,-376.0904 203.8062,-371.2288 198.7198,-366.4195"/>
</g>
<!-- I5&#45;&gt;N2 -->
<g id="edge38" class="edge">
<title>I5&#45;&gt;N2</title>
<path fill="none" stroke="#000000" d="M457.5069,-102.2861C420.1757,-154.2831 314.3986,-301.6155 268.5205,-365.5172"/>
<polygon fill="#000000" stroke="#000000" points="265.4468,-363.7972 262.4578,-373.9617 271.133,-367.8797 265.4468,-363.7972"/>
</g>
<!-- I5&#45;&gt;N3 -->
<g id="edge30" class="edge">
<title>I5&#45;&gt;N3</title>
<path fill="none" stroke="#000000" d="M460.572,-104.6591C434.5704,-157.682 365.9891,-297.5341 334.3141,-362.1261"/>
<polygon fill="#000000" stroke="#000000" points="330.9991,-360.937 329.7386,-371.4566 337.2841,-364.0191 330.9991,-360.937"/>
</g>
<!-- I5&#45;&gt;N4 -->
<g id="edge22" class="edge">
<title>I5&#45;&gt;N4</title>
<path fill="none" stroke="#000000" d="M464.9511,-106.1417C450.9035,-159.5911 415.3651,-294.8104 398.2907,-359.7763"/>
<polygon fill="#000000" stroke="#000000" points="394.8719,-359.0152 395.715,-369.5765 401.642,-360.7946 394.8719,-359.0152"/>
</g>
<!-- I5&#45;&gt;N5 -->
<g id="edge14" class="edge">
<title>I5&#45;&gt;N5</title>
<path fill="none" stroke="#000000" d="M470.0395,-106.6455C468.1548,-160.1014 463.4572,-293.3419 461.1579,-358.5593"/>
<polygon fill="#000000" stroke="#000000" points="457.6517,-358.6762 460.7971,-368.7933 464.6473,-358.9229 457.6517,-358.6762"/>
</g>
<!-- I5&#45;&gt;N6 -->
<g id="edge6" class="edge">
<title>I5&#45;&gt;N6</title>
<path fill="none" stroke="#000000" d="M452.2423,-97.0035C447.8519,-100.1376 443.1866,-103.4646 438.8483,-106.5517 274.5903,-223.4381 231.1866,-249.4173 68.8483,-368.9554 67.047,-370.2818 65.2005,-371.6543 63.3424,-373.045"/>
<polygon fill="#000000" stroke="#000000" points="61.0991,-370.3532 55.2282,-379.1727 65.3176,-375.9393 61.0991,-370.3532"/>
</g>
<!-- I6 -->
<g id="node7" class="node">
<title>I6</title>
<ellipse fill="none" stroke="#da70d6" stroke-width="2" cx="22.8483" cy="-83.7034" rx="18.724" ry="18.724"/>
<ellipse fill="none" stroke="#da70d6" stroke-width="2" cx="22.8483" cy="-83.7034" rx="22.6977" ry="22.6977"/>
<text text-anchor="middle" x="22.8483" y="-80.0034" font-family="Times,serif" font-size="14.00" fill="#000000">I6</text>
</g>
<!-- I6&#45;&gt;N0 -->
<g id="edge55" class="edge">
<title>I6&#45;&gt;N0</title>
<path fill="none" stroke="#000000" d="M28.7456,-106.1417C42.7932,-159.5911 78.3316,-294.8104 95.4059,-359.7763"/>
<polygon fill="#000000" stroke="#000000" points="92.0546,-360.7946 97.9816,-369.5765 98.8247,-359.0152 92.0546,-360.7946"/>
</g>
<!-- I6&#45;&gt;N1 -->
<g id="edge47" class="edge">
<title>I6&#45;&gt;N1</title>
<path fill="none" stroke="#000000" d="M33.1247,-104.6591C59.1263,-157.682 127.7076,-297.5341 159.3825,-362.1261"/>
<polygon fill="#000000" stroke="#000000" points="156.4126,-364.0191 163.9581,-371.4566 162.6976,-360.937 156.4126,-364.0191"/>
</g>
<!-- I6&#45;&gt;N2 -->
<g id="edge39" class="edge">
<title>I6&#45;&gt;N2</title>
<path fill="none" stroke="#000000" d="M36.1897,-102.2861C73.5209,-154.2831 179.298,-301.6155 225.1762,-365.5172"/>
<polygon fill="#000000" stroke="#000000" points="222.5636,-367.8797 231.2389,-373.9617 228.2499,-363.7972 222.5636,-367.8797"/>
</g>
<!-- I6&#45;&gt;N3 -->
<g id="edge31" class="edge">
<title>I6&#45;&gt;N3</title>
<path fill="none" stroke="#000000" d="M38.7088,-100.4779C87.0262,-151.5797 232.7108,-305.6597 292.1633,-368.5382"/>
<polygon fill="#000000" stroke="#000000" points="289.8904,-371.2288 299.304,-376.0904 294.9768,-366.4195 289.8904,-371.2288"/>
</g>
<!-- I6&#45;&gt;N4 -->
<g id="edge23" class="edge">
<title>I6&#45;&gt;N4</title>
<path fill="none" stroke="#000000" d="M40.5013,-98.7518C99.2111,-148.7996 288.2661,-309.9612 360.4626,-371.5057"/>
<polygon fill="#000000" stroke="#000000" points="358.3942,-374.3416 368.275,-378.1655 362.9354,-369.0145 358.3942,-374.3416"/>
</g>
<!-- I6&#45;&gt;N5 -->
<g id="edge15" class="edge">
<title>I6&#45;&gt;N5</title>
<path fill="none" stroke="#000000" d="M41.4544,-97.0035C45.8447,-100.1376 50.5101,-103.4646 54.8483,-106.5517 219.1063,-223.4381 262.51,-249.4173 424.8483,-368.9554 426.6496,-370.2818 428.4962,-371.6543 430.3542,-373.045"/>
<polygon fill="#000000" stroke="#000000" points="428.379,-375.9393 438.4684,-379.1727 432.5976,-370.3532 428.379,-375.9393"/>
</g>
<!-- I6&#45;&gt;N6 -->
<g id="edge7" class="edge">
<title>I6&#45;&gt;N6</title>
<path fill="none" stroke="#000000" d="M23.6572,-106.6455C25.5418,-160.1014 30.2394,-293.3419 32.5388,-358.5593"/>
<polygon fill="#000000" stroke="#000000" points="29.0493,-358.9229 32.8996,-368.7933 36.045,-358.6762 29.0493,-358.9229"/>
</g>
<!-- I7 -->
<g id="node8" class="node">
<title>I7</title>
<ellipse fill="none" stroke="#da70d6" stroke-width="2" cx="86.8483" cy="-83.7034" rx="18.724" ry="18.724"/>
<ellipse fill="none" stroke="#da70d6" stroke-width="2" cx="86.8483" cy="-83.7034" rx="22.6977" ry="22.6977"/>
<text text-anchor="middle" x="86.8483" y="-80.0034" font-family="Times,serif" font-size="14.00" fill="#000000">I7</text>
</g>
<!-- I7&#45;&gt;N0 -->
<g id="edge56" class="edge">
<title>I7&#45;&gt;N0</title>
<path fill="none" stroke="#000000" d="M88.1719,-106.6455C91.2559,-160.1014 98.9429,-293.3419 102.7054,-358.5593"/>
<polygon fill="#000000" stroke="#000000" points="99.2256,-359.0115 103.2958,-368.7933 106.214,-358.6083 99.2256,-359.0115"/>
</g>
<!-- I7&#45;&gt;N1 -->
<g id="edge48" class="edge">
<title>I7&#45;&gt;N1</title>
<path fill="none" stroke="#000000" d="M93.249,-106.1417C108.4958,-159.5911 147.068,-294.8104 165.5999,-359.7763"/>
<polygon fill="#000000" stroke="#000000" points="162.2865,-360.9202 168.3954,-369.5765 169.018,-358.9999 162.2865,-360.9202"/>
</g>
<!-- I7&#45;&gt;N2 -->
<g id="edge40" class="edge">
<title>I7&#45;&gt;N2</title>
<path fill="none" stroke="#000000" d="M97.3464,-104.1746C124.4483,-157.0234 196.9473,-298.3963 230.0031,-362.8551"/>
<polygon fill="#000000" stroke="#000000" points="226.9063,-364.4866 234.5839,-371.7877 233.135,-361.2924 226.9063,-364.4866"/>
</g>
<!-- I7&#45;&gt;N3 -->
<g id="edge32" class="edge">
<title>I7&#45;&gt;N3</title>
<path fill="none" stroke="#000000" d="M100.6066,-102.2861C139.1832,-154.3894 248.6335,-302.2185 295.7884,-365.9082"/>
<polygon fill="#000000" stroke="#000000" points="292.9877,-368.0074 301.7511,-373.9617 298.6135,-363.842 292.9877,-368.0074"/>
</g>
<!-- I7&#45;&gt;N4 -->
<g id="edge24" class="edge">
<title>I7&#45;&gt;N4</title>
<path fill="none" stroke="#000000" d="M103.0852,-100.4779C152.5491,-151.5797 301.6906,-305.6597 362.5538,-368.5382"/>
<polygon fill="#000000" stroke="#000000" points="360.3941,-371.3394 369.8639,-376.0904 365.4238,-366.4708 360.3941,-371.3394"/>
</g>
<!-- I7&#45;&gt;N5 -->
<g id="edge16" class="edge">
<title>I7&#45;&gt;N5</title>
<path fill="none" stroke="#000000" d="M104.8389,-98.7518C164.6716,-148.7996 357.3424,-309.9612 430.9197,-371.5057"/>
<polygon fill="#000000" stroke="#000000" points="428.9654,-374.4341 438.8815,-378.1655 433.4567,-369.0648 428.9654,-374.4341"/>
</g>
<!-- I7&#45;&gt;N6 -->
<g id="edge8" class="edge">
<title>I7&#45;&gt;N6</title>
<path fill="none" stroke="#000000" d="M82.994,-106.393C73.9231,-159.7918 51.1594,-293.7965 40.0888,-358.9672"/>
<polygon fill="#000000" stroke="#000000" points="36.5772,-358.7406 38.353,-369.1856 43.4783,-359.913 36.5772,-358.7406"/>
</g>
</g>
</svg>
